<?xml version="1.0" encoding="utf-8"?>
<!-- Generator: Adobe Illustrator 27.8.1, SVG Export Plug-In . SVG Version: 6.00 Build 0)  -->
<svg version="1.1" xmlns="http://www.w3.org/2000/svg" xmlns:xlink="http://www.w3.org/1999/xlink" x="0px" y="0px"
	 viewBox="0 0 20 20" style="enable-background:new 0 0 20 20;" xml:space="preserve">
<style type="text/css">
	.st0{fill:url(#SVGID_1_);}
	.st1{fill:url(#SVGID_00000138547031825123948570000003327864009449495458_);}
	.st2{fill:#A1F7CB;}
	.st3{fill:#64E29D;}
</style>
<g id="参考线">
</g>
<g id="图层_2">
	<linearGradient id="SVGID_1_" gradientUnits="userSpaceOnUse" x1="4.7217" y1="9.2517" x2="15.2783" y2="21.3956">
		<stop  offset="0" style="stop-color:#64ED9F"/>
		<stop  offset="1" style="stop-color:#1FBF54"/>
	</linearGradient>
	<path class="st0" d="M17.5,19H2.5C1.7,19,1,18.3,1,17.5v-4.3c0-0.9,0.7-1.5,1.5-1.5h14.9c0.9,0,1.5,0.7,1.5,1.5v4.3
		C19,18.3,18.3,19,17.5,19z"/>
	
		<linearGradient id="SVGID_00000114788507873318006460000011157603942897138862_" gradientUnits="userSpaceOnUse" x1="5.3928" y1="8.6684" x2="14.5447" y2="19.1966">
		<stop  offset="0" style="stop-color:#8FEAB4"/>
		<stop  offset="1" style="stop-color:#3EE56E"/>
	</linearGradient>
	<path style="fill:url(#SVGID_00000114788507873318006460000011157603942897138862_);" d="M1,15.3v-2.1c0-0.9,0.7-1.5,1.5-1.5h14.9
		c0.9,0,1.5,0.7,1.5,1.5v2.1H1z"/>
	<path class="st2" d="M16.4,15.3H3.6V2.7c0-1.1,0.9-2,2-2h10.8V15.3z"/>
	<path class="st3" d="M16.4,0.7v4.6h1.8V2.7C18.3,1.6,17.4,0.8,16.4,0.7z"/>
	<path class="st3" d="M13.7,3.6H5.9c-0.2,0-0.4-0.2-0.4-0.4V2.9c0-0.2,0.2-0.4,0.4-0.4h7.8c0.2,0,0.4,0.2,0.4,0.4v0.3
		C14.1,3.4,13.9,3.6,13.7,3.6z"/>
	<path class="st3" d="M11.6,6.3H5.9c-0.2,0-0.4-0.2-0.4-0.4V5.6c0-0.2,0.2-0.4,0.4-0.4h5.7c0.2,0,0.4,0.2,0.4,0.4v0.3
		C12,6.1,11.8,6.3,11.6,6.3z"/>
	<path class="st3" d="M13.7,9H5.9C5.7,9,5.5,8.8,5.5,8.6V8.3c0-0.2,0.2-0.4,0.4-0.4h7.8c0.2,0,0.4,0.2,0.4,0.4v0.3
		C14.1,8.8,13.9,9,13.7,9z"/>
	<circle class="st3" cx="13" cy="12.3" r="2.2"/>
</g>
</svg>
