<?xml version="1.0" encoding="utf-8"?>
<!-- Generator: Adobe Illustrator 27.8.1, SVG Export Plug-In . SVG Version: 6.00 Build 0)  -->
<svg version="1.1" id="图层_1" xmlns="http://www.w3.org/2000/svg" xmlns:xlink="http://www.w3.org/1999/xlink" x="0px" y="0px"
	 viewBox="0 0 20 20" style="enable-background:new 0 0 20 20;" xml:space="preserve">
<style type="text/css">
	.st0{display:none;}
	.st1{fill:url(#SVGID_1_);}
	.st2{fill:url(#SVGID_00000177455528168221458310000006139126543659566258_);}
	.st3{fill:#FFDBA1;}
</style>
<g id="参考线" class="st0">
</g>
<linearGradient id="SVGID_1_" gradientUnits="userSpaceOnUse" x1="3.5403" y1="15.781" x2="16.4797" y2="0.8959" gradientTransform="matrix(1 0 0 -1 0 21)">
	<stop  offset="0" style="stop-color:#FFC07B"/>
	<stop  offset="1" style="stop-color:#EF9E29"/>
</linearGradient>
<path class="st1" d="M17,19H3c-1.1,0-2-0.9-2-2V8.3c0-1.1,0.9-2,2-2h14c1.1,0,2,0.9,2,2V17C19,18.1,18.1,19,17,19z"/>
<linearGradient id="SVGID_00000029013561726047389680000006244230620041429132_" gradientUnits="userSpaceOnUse" x1="5.5333" y1="0.4571" x2="14.4198" y2="10.6799">
	<stop  offset="0" style="stop-color:#FFC07B"/>
	<stop  offset="1" style="stop-color:#EF9E29"/>
</linearGradient>
<path style="fill:url(#SVGID_00000029013561726047389680000006244230620041429132_);" d="M16.4,8.7V3.1c0-1.2-1-2.1-2.1-2.1H5.7
	c-1.2,0-2.1,1-2.1,2.1v5.6c0,0.4,0.3,0.6,0.6,0.6l0.8,0c0.4,0,0.6-0.3,0.6-0.6V3.9c0-0.6,0.5-1.1,1.1-1.1h6.4c0.6,0,1.1,0.5,1.1,1.1
	v4.8c0,0.4,0.3,0.6,0.6,0.6l0.9,0C16.1,9.3,16.4,9,16.4,8.7z"/>
<g>
	<path class="st3" d="M14.2,6.3v2.4c0,0.4,0.3,0.6,0.6,0.6h0.9c0.4,0,0.6-0.3,0.6-0.6V6.3H14.2z"/>
	<path class="st3" d="M4.2,9.3H5c0.4,0,0.6-0.3,0.6-0.6V6.3H3.6v2.4C3.6,9,3.9,9.3,4.2,9.3z"/>
</g>
<path class="st3" d="M15.5,16.8h-11c-0.5,0-0.9-0.4-0.9-0.9v-4.2c0-0.5,0.4-0.9,0.9-0.9h11c0.5,0,0.9,0.4,0.9,0.9v4.2
	C16.4,16.4,16,16.8,15.5,16.8z"/>
</svg>
