<?xml version="1.0" encoding="utf-8"?>
<!-- Generator: Adobe Illustrator 27.8.1, SVG Export Plug-In . SVG Version: 6.00 Build 0)  -->
<svg version="1.1" id="图层_1" xmlns="http://www.w3.org/2000/svg" xmlns:xlink="http://www.w3.org/1999/xlink" x="0px" y="0px"
	 viewBox="0 0 20 20" style="enable-background:new 0 0 20 20;" xml:space="preserve">
<style type="text/css">
	.st0{fill-rule:evenodd;clip-rule:evenodd;fill:url(#SVGID_1_);}
	.st1{fill-rule:evenodd;clip-rule:evenodd;fill:#AEF0FF;}
	.st2{fill-rule:evenodd;clip-rule:evenodd;fill:url(#SVGID_00000090991224109560521750000003109029788337575589_);}
	.st3{fill-rule:evenodd;clip-rule:evenodd;fill:url(#SVGID_00000084514893658309210990000004569871197755035803_);}
	.st4{fill-rule:evenodd;clip-rule:evenodd;fill:url(#SVGID_00000085937784620896377310000001131617403833334935_);}
	.st5{fill-rule:evenodd;clip-rule:evenodd;fill:url(#SVGID_00000031165787732696572500000014347848897284539794_);}
	.st6{fill-rule:evenodd;clip-rule:evenodd;fill:#C0F6FF;}
</style>
<linearGradient id="SVGID_1_" gradientUnits="userSpaceOnUse" x1="-6.915809e-02" y1="18.0036" x2="12.2943" y2="3.781" gradientTransform="matrix(1 0 0 -1 0 21)">
	<stop  offset="0" style="stop-color:#3DD0F2"/>
	<stop  offset="1" style="stop-color:#1283D8"/>
</linearGradient>
<path class="st0" d="M10,19.2H3.2c-1.2,0-2.1-0.9-2.1-2V2.9c0-1.1,1-2,2.1-2H10V19.2z"/>
<path class="st1" d="M16.9,19.2H10V0.9h6.9c1.1,0,2,0.9,2,2v14.2C19,18.3,18,19.2,16.9,19.2z"/>
<linearGradient id="SVGID_00000071526473139598390560000000462892717309929600_" gradientUnits="userSpaceOnUse" x1="12.7118" y1="1.7185" x2="16.0954" y2="5.6109">
	<stop  offset="0" style="stop-color:#3DD0F2"/>
	<stop  offset="1" style="stop-color:#1283D8"/>
</linearGradient>
<path style="fill-rule:evenodd;clip-rule:evenodd;fill:url(#SVGID_00000071526473139598390560000000462892717309929600_);" d="
	M17.5,4.3h-6.2c-0.2,0-0.3-0.2-0.3-0.5V3.5C11,3.2,11.1,3,11.3,3h6.2c0.2,0,0.3,0.2,0.3,0.5v0.4C17.8,4.1,17.7,4.3,17.5,4.3z"/>
<linearGradient id="SVGID_00000160176875417134837940000016382442959925956496_" gradientUnits="userSpaceOnUse" x1="12.0948" y1="5.1549" x2="14.5381" y2="7.9655">
	<stop  offset="0" style="stop-color:#3DD0F2"/>
	<stop  offset="1" style="stop-color:#1283D8"/>
</linearGradient>
<path style="fill-rule:evenodd;clip-rule:evenodd;fill:url(#SVGID_00000160176875417134837940000016382442959925956496_);" d="
	M15.3,7.2h-4C11.2,7.2,11,7,11,6.8V6.4c0-0.3,0.1-0.5,0.3-0.5h4c0.2,0,0.3,0.2,0.3,0.5v0.4C15.6,7,15.5,7.2,15.3,7.2z"/>
<linearGradient id="SVGID_00000161596919067164051680000003057988840126023340_" gradientUnits="userSpaceOnUse" x1="12.741" y1="7.546" x2="16.0753" y2="11.3816">
	<stop  offset="0" style="stop-color:#3DD0F2"/>
	<stop  offset="1" style="stop-color:#1283D8"/>
</linearGradient>
<path style="fill-rule:evenodd;clip-rule:evenodd;fill:url(#SVGID_00000161596919067164051680000003057988840126023340_);" d="
	M17.3,10.1h-5.8c-0.2,0-0.5-0.2-0.5-0.4V9.3c0-0.3,0.2-0.5,0.5-0.5h5.8c0.3,0,0.5,0.2,0.5,0.5v0.4C17.8,9.9,17.6,10.1,17.3,10.1z"/>
<linearGradient id="SVGID_00000155124606140970346770000001421891610504828595_" gradientUnits="userSpaceOnUse" x1="12.0948" y1="15.3092" x2="14.5381" y2="18.1199">
	<stop  offset="0" style="stop-color:#3DD0F2"/>
	<stop  offset="1" style="stop-color:#1283D8"/>
</linearGradient>
<path style="fill-rule:evenodd;clip-rule:evenodd;fill:url(#SVGID_00000155124606140970346770000001421891610504828595_);" d="
	M15.3,17.4h-4c-0.1,0-0.3-0.2-0.3-0.4v-0.4c0-0.3,0.1-0.5,0.3-0.5h4c0.2,0,0.3,0.2,0.3,0.5V17C15.6,17.2,15.5,17.4,15.3,17.4z"/>
<circle class="st6" cx="5.5" cy="5.8" r="2.8"/>
<path class="st6" d="M7.8,13.2H3.2c-0.2,0-0.4-0.2-0.4-0.4v-0.4c0-0.2,0.2-0.4,0.4-0.4h4.7c0.2,0,0.4,0.2,0.4,0.4v0.4
	C8.3,13,8.1,13.2,7.8,13.2z"/>
<path class="st6" d="M6.1,16.1H3.2c-0.2,0-0.4-0.2-0.4-0.4v-0.4c0-0.2,0.2-0.4,0.4-0.4h2.9c0.2,0,0.4,0.2,0.4,0.4v0.4
	C6.5,15.9,6.3,16.1,6.1,16.1z"/>
</svg>
