<?xml version="1.0" encoding="utf-8"?>
<!-- Generator: Adobe Illustrator 27.8.1, SVG Export Plug-In . SVG Version: 6.00 Build 0)  -->
<svg version="1.1" id="图层_1" xmlns="http://www.w3.org/2000/svg" xmlns:xlink="http://www.w3.org/1999/xlink" x="0px" y="0px"
	 viewBox="0 0 20 20" style="enable-background:new 0 0 20 20;" xml:space="preserve">
<style type="text/css">
	.st0{fill-rule:evenodd;clip-rule:evenodd;fill:url(#SVGID_1_);}
	.st1{fill-rule:evenodd;clip-rule:evenodd;fill:#A0E8F9;}
	.st2{fill-rule:evenodd;clip-rule:evenodd;fill:url(#SVGID_00000170260076272529872550000006343864107711251897_);}
	.st3{fill-rule:evenodd;clip-rule:evenodd;fill:#65CEEF;}
</style>
<linearGradient id="SVGID_1_" gradientUnits="userSpaceOnUse" x1="4.4794" y1="10.9956" x2="15.5502" y2="-1.74" gradientTransform="matrix(1 0 0 -1 0 21)">
	<stop  offset="0" style="stop-color:#3DD0F2"/>
	<stop  offset="1" style="stop-color:#1283D8"/>
</linearGradient>
<path class="st0" d="M17.6,20H2.4C1.1,20,0,19.1,0,18v-3.3c0-1.1,1.1-2,2.4-2h15.2c1.3,0,2.4,0.9,2.4,2V18C20.1,19.1,19,20,17.6,20z
	"/>
<path class="st1" d="M0,16.4v-1.6c0-1.1,1.1-2,2.4-2h15.2c1.3,0,2.4,0.9,2.4,2v1.6H0z"/>
<linearGradient id="SVGID_00000081625971937648053110000014302722106649117845_" gradientUnits="userSpaceOnUse" x1="5.8843" y1="1.8601" x2="16.2683" y2="13.8056">
	<stop  offset="0" style="stop-color:#3DD0F2"/>
	<stop  offset="1" style="stop-color:#1283D8"/>
</linearGradient>
<path style="fill-rule:evenodd;clip-rule:evenodd;fill:url(#SVGID_00000081625971937648053110000014302722106649117845_);" d="
	M6.3,12.7H2.5V5.2c0-0.5,0.4-0.9,0.9-0.9h2.1c0.5,0,0.9,0.4,0.9,0.9V12.7z M16.7,0h-2.1c-0.5,0-0.9,0.4-0.9,0.9v11.8h3.8V0.9
	C17.5,0.4,17.1,0,16.7,0z M11.1,2H9C8.5,2,8.1,2.4,8.1,2.9v9.8h3.8V2.9C11.9,2.4,11.6,2,11.1,2z"/>
<path class="st3" d="M6.3,12.7v3.7H2.5v-3.7H6.3z M13.7,12.7v3.7h3.8v-3.7H13.7z M8.1,12.7v3.7h3.8v-3.7H8.1z"/>
</svg>
