<?xml version="1.0" encoding="utf-8"?>
<!-- Generator: Adobe Illustrator 27.8.1, SVG Export Plug-In . SVG Version: 6.00 Build 0)  -->
<svg version="1.1" id="图层_1" xmlns="http://www.w3.org/2000/svg" xmlns:xlink="http://www.w3.org/1999/xlink" x="0px" y="0px"
	 viewBox="0 0 20 20" style="enable-background:new 0 0 20 20;" xml:space="preserve">
<style type="text/css">
	.st0{fill:url(#SVGID_1_);}
	.st1{fill:#FE9798;}
	.st2{fill:url(#SVGID_00000058589095145126929250000004281799100793784763_);}
	.st3{opacity:0.8;fill:#FFFFFF;enable-background:new    ;}
</style>
<linearGradient id="SVGID_1_" gradientUnits="userSpaceOnUse" x1="-37.0396" y1="1.7728" x2="-36.4506" y2="2.6099" gradientTransform="matrix(15 0 0 17 561 -23)">
	<stop  offset="0" style="stop-color:#FF7676"/>
	<stop  offset="1" style="stop-color:#FB252F"/>
	<stop  offset="1" style="stop-color:#FC3D45"/>
</linearGradient>
<path class="st0" d="M2.9,9H17c1,0,1.9,0.9,1.9,1.9v7.3c0,1-0.8,1.8-1.8,1.8H2.9c-1,0-1.8-0.8-1.8-1.8v-7.4C1,9.8,1.9,9,2.9,9z"/>
<path class="st1" d="M1,14v-3.2C1,9.8,1.9,9,2.9,9H17c1,0,1.9,0.9,1.9,1.9V14L1,14z"/>
<path class="st1" d="M15.5,6.3h-11c-0.6,0-1.1-0.5-1.1-1.1V4.8c0-0.6,0.5-1.1,1.1-1.1h11c0.6,0,1.1,0.5,1.1,1.1v0.3
	C16.6,5.8,16.1,6.3,15.5,6.3z"/>
<linearGradient id="SVGID_00000005966242860863634830000002010313183932275585_" gradientUnits="userSpaceOnUse" x1="8.7401" y1="7.0012" x2="11.2699" y2="7.0012">
	<stop  offset="0" style="stop-color:#FF7676"/>
	<stop  offset="1" style="stop-color:#FB252F"/>
	<stop  offset="1" style="stop-color:#FC3D45"/>
</linearGradient>
<path style="fill:url(#SVGID_00000005966242860863634830000002010313183932275585_);" d="M8.7,14V1c0-0.6,0.5-1,1-1h0.5
	c0.6,0,1,0.5,1,1V14H8.7z"/>
<rect x="8.7" y="3.7" class="st3" width="2.5" height="2.5"/>
</svg>
