<?xml version="1.0" encoding="utf-8"?>
<!-- Generator: Adobe Illustrator 27.8.1, SVG Export Plug-In . SVG Version: 6.00 Build 0)  -->
<svg version="1.1" id="图层_1" xmlns="http://www.w3.org/2000/svg" xmlns:xlink="http://www.w3.org/1999/xlink" x="0px" y="0px"
	 viewBox="0 0 20 20" style="enable-background:new 0 0 20 20;" xml:space="preserve">
<style type="text/css">
	.st0{fill:url(#SVGID_1_);}
	.st1{fill:#3ACE76;}
	.st2{fill:#D7FFE9;}
	.st3{fill:#26C46D;}
	.st4{fill:#64E29A;}
</style>
<linearGradient id="SVGID_1_" gradientUnits="userSpaceOnUse" x1="1.1155" y1="33.75" x2="17.0506" y2="33.75" gradientTransform="matrix(1 0 0 1 0 -24)">
	<stop  offset="0" style="stop-color:#8FEAB4"/>
	<stop  offset="1" style="stop-color:#3EE56E"/>
</linearGradient>
<path class="st0" d="M15.3,18.5H2.9c-1,0-1.7-0.6-1.7-1.5V2.5C1.2,1.6,1.9,1,2.9,1h12.5c1,0,1.7,0.6,1.7,1.5V17
	C17.1,17.9,16.3,18.5,15.3,18.5z"/>
<path class="st1" d="M12.4,13.5H4.3c-0.5,0-0.8-0.4-0.8-0.8v-0.5c0-0.5,0.4-0.8,0.8-0.8h8.1c0.5,0,0.8,0.4,0.8,0.8v0.5
	C13.2,13.2,12.9,13.5,12.4,13.5z"/>
<path class="st2" d="M17.2,19.2C17.2,19.2,17.3,19.2,17.2,19.2c0.4-0.7,0.4-1.5,0-2.2l-3.8-8.3c-0.3-0.6-0.9-1-1.5-1h-0.1
	c-0.7,0-1.4,0.4-1.8,1.1L6.3,17c-0.4,0.6-0.4,1.5,0,2.1v0.1c0.4,0.5,1,0.8,1.6,0.8h7.6C16.2,20,16.9,19.7,17.2,19.2z"/>
<path class="st1" d="M12.3,5.2h-8c-0.5,0-0.8-0.4-0.8-0.8V3.9c0-0.5,0.4-0.8,0.8-0.8h8c0.5,0,0.8,0.4,0.8,0.8v0.5
	C13.1,4.9,12.7,5.2,12.3,5.2z"/>
<path class="st1" d="M7.2,9.4H4.3C3.8,9.4,3.4,9,3.4,8.6V8.1c0-0.5,0.4-0.8,0.8-0.8h2.9C7.6,7.2,8,7.6,8,8.1v0.5
	C8,9,7.6,9.4,7.2,9.4z"/>
<circle class="st2" cx="11.8" cy="5.8" r="3.2"/>
<path class="st3" d="M18.4,20H5c-0.8,0-1.5-0.7-1.5-1.5l0,0C3.5,17.7,4.2,17,5,17h13.5c0.8,0,1.5,0.7,1.5,1.5l0,0
	C19.9,19.3,19.3,20,18.4,20z"/>
<path class="st4" d="M6.3,17c-0.4,0.6-0.4,1.5,0,2.1v0.1c0.3,0.4,0.8,0.7,1.3,0.8h8.3c0.5-0.1,1-0.3,1.3-0.8c0,0,0,0,0-0.1
	c0.4-0.6,0.4-1.5,0-2.1v-0.1L6.3,17L6.3,17z"/>
</svg>
