<?xml version="1.0" encoding="utf-8"?>
<!-- Generator: Adobe Illustrator 27.8.1, SVG Export Plug-In . SVG Version: 6.00 Build 0)  -->
<svg version="1.1" id="图层_1" xmlns="http://www.w3.org/2000/svg" xmlns:xlink="http://www.w3.org/1999/xlink" x="0px" y="0px"
	 viewBox="0 0 20 20" style="enable-background:new 0 0 20 20;" xml:space="preserve">
<style type="text/css">
	.st0{fill:url(#SVGID_1_);}
	.st1{fill:#E6FDFF;}
	.st2{fill:#1469C4;}
</style>
<linearGradient id="SVGID_1_" gradientUnits="userSpaceOnUse" x1="16.3419" y1="43.2894" x2="1.514" y2="26.2318" gradientTransform="matrix(-1 0 0 -1 20 43.7)">
	<stop  offset="0" style="stop-color:#3DD0F2"/>
	<stop  offset="1" style="stop-color:#1283D8"/>
</linearGradient>
<path class="st0" d="M4.2,0.7h11.6c1.2,0,2.2,0.9,2.2,2V17c0,1.1-1,2-2.2,2H8l-6-5.6V2.7C2,1.6,3,0.7,4.2,0.7z"/>
<path class="st1" d="M4.4,12.9h8.8c0.3,0,0.5,0.2,0.6,0.5v0.5c0,0.3-0.2,0.5-0.5,0.5H4.4c-0.3,0-0.5-0.2-0.5-0.5v-0.5
	C3.9,13.1,4.1,12.9,4.4,12.9z M3.9,10.2v0.5c0,0.3,0.2,0.5,0.5,0.5h7.4c0.3,0,0.5-0.2,0.5-0.5v-0.5c-0.1-0.3-0.3-0.5-0.5-0.5H4.4
	C4.1,9.7,3.9,9.9,3.9,10.2z M3.9,3.7v0.5c0,0.3,0.2,0.5,0.5,0.5h7.4c0.3,0,0.5-0.2,0.5-0.5V3.7c-0.1-0.3-0.3-0.5-0.5-0.5H4.4
	C4.1,3.2,3.9,3.4,3.9,3.7z M3.9,7v0.5C3.9,7.8,4.1,8,4.4,8h10.5c0.3,0,0.5-0.2,0.5-0.5V7c0-0.3-0.2-0.5-0.5-0.5H4.4
	C4.1,6.5,3.9,6.7,3.9,7z"/>
<path class="st2" d="M2,13.4h4.4C7.2,13.4,8,14,8,14.7V19L2,13.4z"/>
</svg>
