<?xml version="1.0" encoding="utf-8"?>
<!-- Generator: Adobe Illustrator 27.8.1, SVG Export Plug-In . SVG Version: 6.00 Build 0)  -->
<svg version="1.1" id="图层_1" xmlns="http://www.w3.org/2000/svg" xmlns:xlink="http://www.w3.org/1999/xlink" x="0px" y="0px"
	 viewBox="0 0 20 20" style="enable-background:new 0 0 20 20;" xml:space="preserve">
<style type="text/css">
	.st0{fill:url(#SVGID_1_);}
	.st1{fill:#FE9798;}
	.st2{fill:#FFFFFF;enable-background:new    ;}
	.st3{fill:#FFBBBE;}
</style>
<linearGradient id="SVGID_1_" gradientUnits="userSpaceOnUse" x1="3.9096" y1="15.5831" x2="15.6126" y2="0.9072" gradientTransform="matrix(1 0 0 -1 0 21)">
	<stop  offset="0" style="stop-color:#FF7676"/>
	<stop  offset="1" style="stop-color:#FC3D45"/>
</linearGradient>
<path class="st0" d="M2.9,6H17c1,0,1.9,0.9,1.9,1.9v10.3c0,1-0.8,1.8-1.8,1.8H2.9c-1,0-1.8-0.8-1.8-1.8V7.8C1,6.8,1.9,6,2.9,6z"/>
<path class="st1" d="M1.1,9l0-7.2C1.1,0.8,2,0,3,0h14c1,0,1.9,0.9,1.9,1.9l0,7.1H1.1z"/>
<path class="st2" d="M17,6.5h-4.2V2.3c0-0.6-0.5-1.1-1.2-1.1h-0.3c-0.6,0-1.1,0.5-1.1,1.1v4.2H6C5.4,6.5,4.9,7,4.9,7.6V8
	c0,0.6,0.5,1.1,1.1,1.1h4.2v4.2c0,0.6,0.5,1.1,1.1,1.1h0.4c0.6,0,1.1-0.5,1.1-1.1V9.1H17c0.6,0,1.1-0.5,1.1-1.2V7.6
	C18.1,7,17.6,6.5,17,6.5z"/>
<path class="st3" d="M7.9,14.4H3.5c-0.4,0-0.8-0.3-0.8-0.8v0c0-0.4,0.3-0.8,0.8-0.8h4.4c0.4,0,0.8,0.3,0.8,0.8v0
	C8.7,14.1,8.4,14.4,7.9,14.4z"/>
<path class="st3" d="M15.3,17.6H3.5c-0.4,0-0.8-0.3-0.8-0.8v0c0-0.4,0.3-0.8,0.8-0.8h11.7c0.4,0,0.8,0.3,0.8,0.8v0
	C16,17.3,15.7,17.6,15.3,17.6z"/>
</svg>
