<?xml version="1.0" encoding="utf-8"?>
<!-- Generator: Adobe Illustrator 27.8.1, SVG Export Plug-In . SVG Version: 6.00 Build 0)  -->
<svg version="1.1" id="图层_1" xmlns="http://www.w3.org/2000/svg" xmlns:xlink="http://www.w3.org/1999/xlink" x="0px" y="0px"
	 viewBox="0 0 20 20" style="enable-background:new 0 0 20 20;" xml:space="preserve">
<style type="text/css">
	.st0{fill-rule:evenodd;clip-rule:evenodd;fill:url(#SVGID_1_);}
	.st1{fill-rule:evenodd;clip-rule:evenodd;fill:#FFAC3E;}
	.st2{fill-rule:evenodd;clip-rule:evenodd;fill:#FF9F04;}
	.st3{fill-rule:evenodd;clip-rule:evenodd;fill:#FFF7EB;}
</style>
<linearGradient id="SVGID_1_" gradientUnits="userSpaceOnUse" x1="-17.9603" y1="31.3438" x2="-18.9486" y2="32.0295" gradientTransform="matrix(19 0 0 -15 361 487)">
	<stop  offset="8.535304e-02" style="stop-color:#FEB039"/>
	<stop  offset="0.2237" style="stop-color:#FEB23F"/>
	<stop  offset="0.4001" style="stop-color:#FEB84E"/>
	<stop  offset="0.5971" style="stop-color:#FFC169"/>
	<stop  offset="0.8078" style="stop-color:#FFCE8D"/>
	<stop  offset="0.8607" style="stop-color:#FFD297"/>
</linearGradient>
<path class="st0" d="M1.3,4h17.3c0.5,0,0.6,0,0.8,0.1c0.2,0.1,0.3,0.2,0.4,0.4C20,4.7,20,4.8,20,5.3v12.4c0,0.4,0,0.6-0.1,0.8
	c-0.1,0.2-0.2,0.3-0.4,0.4C19.3,19,19.1,19,18.7,19H1.3c-0.5,0-0.6,0-0.8-0.1c-0.2-0.1-0.3-0.2-0.4-0.4C0,18.3,0,18.2,0,17.7V5.3
	c0-0.4,0-0.6,0.1-0.8s0.2-0.3,0.4-0.4C0.7,4,0.9,4,1.3,4z"/>
<path class="st1" d="M5.8,6.1C3,6.1,0.6,10.3,0,16v1.6c0,0.5,0,0.7,0.1,0.9c0.1,0.2,0.2,0.3,0.4,0.4C0.7,18.9,0.9,19,1.3,19h10.5
	C11.8,11.9,9.2,6.1,5.8,6.1z"/>
<circle class="st2" cx="5.9" cy="4.6" r="3.7"/>
<path class="st3" d="M17.5,8.9h-5.9c-0.6,0-1.1-0.5-1.1-1.1v0c0-0.6,0.5-1.1,1.1-1.1h5.9c0.6,0,1.1,0.5,1.1,1.1v0
	C18.6,8.4,18.2,8.9,17.5,8.9z"/>
<path class="st3" d="M17.5,12.6h-3.8c-0.6,0-1.1-0.5-1.1-1.1v0c0-0.6,0.5-1.1,1.1-1.1h3.8c0.6,0,1.1,0.5,1.1,1.1v0
	C18.6,12.1,18.2,12.6,17.5,12.6z"/>
</svg>
