<?xml version="1.0" encoding="utf-8"?>
<!-- Generator: Adobe Illustrator 27.8.1, SVG Export Plug-In . SVG Version: 6.00 Build 0)  -->
<svg version="1.1" id="图层_1" xmlns="http://www.w3.org/2000/svg" xmlns:xlink="http://www.w3.org/1999/xlink" x="0px" y="0px"
	 viewBox="0 0 20 20" style="enable-background:new 0 0 20 20;" xml:space="preserve">
<style type="text/css">
	.st0{fill:url(#SVGID_1_);}
	.st1{fill:#E5D4FF;}
	.st2{fill:#966CD8;}
</style>
<linearGradient id="SVGID_1_" gradientUnits="userSpaceOnUse" x1="1.528" y1="18.7358" x2="16.3559" y2="1.6782" gradientTransform="matrix(1 0 0 -1 0 21)">
	<stop  offset="0" style="stop-color:#D0B4F9"/>
	<stop  offset="1" style="stop-color:#B45BE8"/>
</linearGradient>
<path class="st0" d="M15.8,19H4.2C3,19,2,18.1,2,17V2.7c0-1.1,1-2,2.2-2H12l6,5.6V17C18,18.1,17,19,15.8,19z"/>
<path class="st1" d="M13.2,6.8H4.4c-0.3,0-0.5-0.2-0.5-0.5V5.8c0-0.3,0.2-0.5,0.5-0.5h8.9c0.3,0,0.5,0.2,0.5,0.5v0.5
	C13.7,6.6,13.5,6.8,13.2,6.8z"/>
<path class="st1" d="M11.8,10H4.4c-0.3,0-0.5-0.2-0.5-0.5V9c0-0.3,0.2-0.5,0.5-0.5h7.4c0.3,0,0.5,0.2,0.5,0.5v0.5
	C12.2,9.8,12,10,11.8,10z"/>
<path class="st1" d="M11.8,16.5H4.4c-0.3,0-0.5-0.2-0.5-0.5v-0.5c0-0.3,0.2-0.5,0.5-0.5h7.4c0.3,0,0.5,0.2,0.5,0.5V16
	C12.2,16.3,12,16.5,11.8,16.5z"/>
<path class="st1" d="M14.9,13.2H4.4c-0.3,0-0.5-0.2-0.5-0.5v-0.5c0-0.3,0.2-0.5,0.5-0.5h10.5c0.3,0,0.5,0.2,0.5,0.5v0.5
	C15.4,13,15.2,13.2,14.9,13.2z"/>
<path class="st2" d="M18,6.3h-4.4C12.8,6.3,12,5.7,12,5V0.7L18,6.3z"/>
</svg>
