<?xml version="1.0" encoding="utf-8"?>
<!-- Generator: Adobe Illustrator 27.8.1, SVG Export Plug-In . SVG Version: 6.00 Build 0)  -->
<svg version="1.1" id="å›¾å±‚_1" xmlns="http://www.w3.org/2000/svg" xmlns:xlink="http://www.w3.org/1999/xlink" x="0px" y="0px"
	 viewBox="0 0 20 20" style="enable-background:new 0 0 20 20;" xml:space="preserve">
<style type="text/css">
	
		.st0{fill-rule:evenodd;clip-rule:evenodd;fill:url(#é»˜è®¤-ä¾§è¾¹æ -ç´ æ-a_00000022523414611206216910000011055033721167613873_);}
	.st1{filter:url(#Adobe_OpacityMaskFilter);}
	.st2{fill-rule:evenodd;clip-rule:evenodd;fill:#FFFFFF;}
	
		.st3{mask:url(#Ä¬ÈÏ-²à±ßÀ¸-ËØ²Ä-c_00000065060163483738362850000016715982180590415784_);fill-rule:evenodd;clip-rule:evenodd;fill:#94F0FF;}
	.st4{filter:url(#Adobe_OpacityMaskFilter_00000030484502118742050110000006463981793086544271_);}
	
		.st5{mask:url(#Ä¬ÈÏ-²à±ßÀ¸-ËØ²Ä-c_00000037684404668554090070000006889280207515200925_);fill-rule:evenodd;clip-rule:evenodd;fill:#76ECFF;}
	.st6{filter:url(#Adobe_OpacityMaskFilter_00000084502420177800668740000003327700454695208869_);}
	
		.st7{mask:url(#Ä¬ÈÏ-²à±ßÀ¸-ËØ²Ä-c_00000057107024434065196850000000524152250270502329_);fill-rule:evenodd;clip-rule:evenodd;fill:#C0F6FF;}
</style>
<g transform="translate(1 2)">
	
		<linearGradient id="é»˜è®¤-ä¾§è¾¹æ -ç´ æ-a_00000053522347663031429270000012394413650263369358_" gradientUnits="userSpaceOnUse" x1="-18.8889" y1="29.3549" x2="-19.8889" y2="30.1451" gradientTransform="matrix(18 0 0 -16 358 484)">
		<stop  offset="0" style="stop-color:#3DD0F2"/>
		<stop  offset="1" style="stop-color:#1283D8"/>
	</linearGradient>
	
		<path id="é»˜è®¤-ä¾§è¾¹æ -ç´ æ-a_00000174583282218037813440000008771782561012039810_" style="fill-rule:evenodd;clip-rule:evenodd;fill:url(#é»˜è®¤-ä¾§è¾¹æ -ç´ æ-a_00000053522347663031429270000012394413650263369358_);" d="
		M1,0h16c0.6,0,1,0.4,1,1v14c0,0.6-0.4,1-1,1H1c-0.6,0-1-0.4-1-1V1C0,0.4,0.4,0,1,0z"/>
	<defs>
		<filter id="Adobe_OpacityMaskFilter" filterUnits="userSpaceOnUse" x="5" y="3.5" width="19" height="12.5">
			<feColorMatrix  type="matrix" values="1 0 0 0 0  0 1 0 0 0  0 0 1 0 0  0 0 0 1 0"/>
		</filter>
	</defs>
	
		<mask maskUnits="userSpaceOnUse" x="5" y="3.5" width="19" height="12.5" id="é»˜è®¤-ä¾§è¾¹æ -ç´ æ-c_00000065060163483738362850000016715982180590415784_">
		<g class="st1">
			<path id="é»˜è®¤-ä¾§è¾¹æ -ç´ æ-a_00000152258188935969454590000013885679210399119525_" class="st2" d="M1,0h16
				c0.6,0,1,0.4,1,1v14c0,0.6-0.4,1-1,1H1c-0.6,0-1-0.4-1-1V1C0,0.4,0.4,0,1,0z"/>
		</g>
	</mask>
	<path class="st3" d="M5,16l8.5-12c0.4-0.6,1.2-0.7,1.7-0.3c0.1,0.1,0.2,0.2,0.3,0.3L24,16l0,0H5z"/>
	<defs>
		
			<filter id="Adobe_OpacityMaskFilter_00000019649802554492910050000011704357574005242760_" filterUnits="userSpaceOnUse" x="0" y="6.8" width="16" height="9.2">
			<feColorMatrix  type="matrix" values="1 0 0 0 0  0 1 0 0 0  0 0 1 0 0  0 0 0 1 0"/>
		</filter>
	</defs>
	
		<mask maskUnits="userSpaceOnUse" x="0" y="6.8" width="16" height="9.2" id="é»˜è®¤-ä¾§è¾¹æ -ç´ æ-c_00000037684404668554090070000006889280207515200925_">
		<g style="filter:url(#Adobe_OpacityMaskFilter_00000019649802554492910050000011704357574005242760_);">
			<path id="é»˜è®¤-ä¾§è¾¹æ -ç´ æ-a_00000177442216561879646090000001906430172797810313_" class="st2" d="M1,0h16
				c0.6,0,1,0.4,1,1v14c0,0.6-0.4,1-1,1H1c-0.6,0-1-0.4-1-1V1C0,0.4,0.4,0,1,0z"/>
		</g>
	</mask>
	<path class="st5" d="M0,16l7-8.8C7.5,6.7,8.2,6.6,8.8,7C8.9,7.1,8.9,7.1,9,7.2l7,8.8l0,0H0z"/>
	<defs>
		
			<filter id="Adobe_OpacityMaskFilter_00000170975025479543414210000016907958522128849066_" filterUnits="userSpaceOnUse" x="5" y="8.7" width="11" height="7.3">
			<feColorMatrix  type="matrix" values="1 0 0 0 0  0 1 0 0 0  0 0 1 0 0  0 0 0 1 0"/>
		</filter>
	</defs>
	
		<mask maskUnits="userSpaceOnUse" x="5" y="8.7" width="11" height="7.3" id="é»˜è®¤-ä¾§è¾¹æ -ç´ æ-c_00000057107024434065196850000000524152250270502329_">
		<g style="filter:url(#Adobe_OpacityMaskFilter_00000170975025479543414210000016907958522128849066_);">
			<path id="é»˜è®¤-ä¾§è¾¹æ -ç´ æ-a_00000110452103553315249200000004062392035334358973_" class="st2" d="M1,0h16
				c0.6,0,1,0.4,1,1v14c0,0.6-0.4,1-1,1H1c-0.6,0-1-0.4-1-1V1C0,0.4,0.4,0,1,0z"/>
		</g>
	</mask>
	<path class="st7" d="M10.2,8.7L16,16H5L10.2,8.7z"/>
</g>
</svg>
