<?xml version="1.0" encoding="utf-8"?>
<!-- Generator: Adobe Illustrator 27.8.1, SVG Export Plug-In . SVG Version: 6.00 Build 0)  -->
<svg version="1.1" id="图层_1" xmlns="http://www.w3.org/2000/svg" xmlns:xlink="http://www.w3.org/1999/xlink" x="0px" y="0px"
	 viewBox="0 0 20 20" style="enable-background:new 0 0 20 20;" xml:space="preserve">
<style type="text/css">
	.st0{fill:url(#SVGID_1_);}
	.st1{fill:#E5D4FF;}
	.st2{fill:#D2BDF9;}
</style>
<linearGradient id="SVGID_1_" gradientUnits="userSpaceOnUse" x1="1.7036" y1="0.4561" x2="18.32" y2="19.5711">
	<stop  offset="0" style="stop-color:#D0B4F9"/>
	<stop  offset="1" style="stop-color:#B45BE8"/>
</linearGradient>
<path class="st0" d="M18,19.1H2c-1.1,0-2-0.9-2-2V2.8c0-1.1,0.9-2,2-2h16c1.1,0,2,0.9,2,2v14.3C20,18.3,19.1,19.1,18,19.1z"/>
<path class="st1" d="M18,0.8H2c-1.1,0-2,0.9-2,2v1.6h20V2.8C20,1.7,19.1,0.8,18,0.8z"/>
<path class="st1" d="M2,0.8c-1.1,0-2,0.9-2,2v14.3c0,1.1,0.9,2,2,2h1.8V0.8H2z"/>
<path class="st2" d="M3.8,0.8H2c-1.1,0-2,0.9-2,2v1.6h3.8V0.8z"/>
<path class="st1" d="M17.6,8.9H6.6C6.1,8.9,5.7,8.5,5.7,8V7.4c0-0.5,0.4-0.9,0.9-0.9h10.9c0.5,0,0.9,0.4,0.9,0.9V8
	C18.5,8.5,18.1,8.9,17.6,8.9z"/>
<path class="st1" d="M14.6,13.1h-8c-0.5,0-0.9-0.4-0.9-0.9v-0.6c0-0.5,0.4-0.9,0.9-0.9h8c0.5,0,0.9,0.4,0.9,0.9v0.6
	C15.6,12.7,15.1,13.1,14.6,13.1z"/>
<path class="st1" d="M14.2,17.3H6.6c-0.5,0-0.9-0.4-0.9-0.9v-0.6c0-0.5,0.4-0.9,0.9-0.9h7.6c0.5,0,0.9,0.4,0.9,0.9v0.6
	C15.1,16.9,14.7,17.3,14.2,17.3z"/>
</svg>
