<?xml version="1.0" encoding="utf-8"?>
<!-- Generator: Adobe Illustrator 27.8.1, SVG Export Plug-In . SVG Version: 6.00 Build 0)  -->
<svg version="1.1" id="图层_1" xmlns="http://www.w3.org/2000/svg" xmlns:xlink="http://www.w3.org/1999/xlink" x="0px" y="0px"
	 viewBox="0 0 20 20" style="enable-background:new 0 0 20 20;" xml:space="preserve">
<style type="text/css">
	.st0{fill:url(#SVGID_1_);}
	.st1{opacity:0.8;fill:#FFFFFF;enable-background:new    ;}
	.st2{fill:#FFBEBE;}
	.st3{fill:#FE9798;}
</style>
<linearGradient id="SVGID_1_" gradientUnits="userSpaceOnUse" x1="-18.5107" y1="32.3238" x2="-17.7905" y2="31.3004" gradientTransform="matrix(15 0 0 -17 281 550)">
	<stop  offset="0" style="stop-color:#FF7676"/>
	<stop  offset="1" style="stop-color:#FB252F"/>
	<stop  offset="1" style="stop-color:#FC3D45"/>
</linearGradient>
<path class="st0" d="M2.1,1h13.7c0.6,0,1.1,0.4,1.1,1v15c0,0.6-0.5,1-1.1,1H2.1C1.5,18,1,17.6,1,17V2C1,1.4,1.5,1,2.1,1z"/>
<path class="st1" d="M4.1,3h9.7c0.5,0,1,0.4,1,0.9v0.2c0,0.5-0.4,0.9-1,0.9H4.1c-0.5,0-1-0.4-1-0.9V3.9C3.1,3.4,3.6,3,4.1,3z"/>
<path class="st2" d="M8.4,7h9.5C18.5,7,19,7.4,19,8v10c0,0.6-0.5,1-1.1,1H8.4c-0.6,0-1.1-0.4-1.1-1V8C7.3,7.4,7.8,7,8.4,7z"/>
<path class="st3" d="M16.9,7v10c0,0.6-0.5,1-1.1,1H7.3l0,0V8c0-0.6,0.5-1,1.1-1H16.9z"/>
<path class="st1" d="M9.9,8.8h4.8c0.5,0,1,0.4,1,0.9v0.2c0,0.5-0.4,0.9-1,0.9H9.9c-0.5,0-1-0.4-1-0.9V9.7C8.9,9.2,9.4,8.8,9.9,8.8z"
	/>
<path class="st1" d="M9.8,12.5h4.1c0.5,0,0.8,0.4,0.8,0.9v0.2c0,0.5-0.4,0.9-0.8,0.9H9.8c-0.5,0-0.8-0.4-0.8-0.9v-0.2
	C8.9,12.9,9.3,12.5,9.8,12.5z"/>
</svg>
