<?xml version="1.0" encoding="utf-8"?>
<!-- Generator: Adobe Illustrator 27.8.1, SVG Export Plug-In . SVG Version: 6.00 Build 0)  -->
<svg version="1.1" id="图层_1" xmlns="http://www.w3.org/2000/svg" xmlns:xlink="http://www.w3.org/1999/xlink" x="0px" y="0px"
	 viewBox="0 0 20 20" style="enable-background:new 0 0 20 20;" xml:space="preserve">
<style type="text/css">
	.st0{fill:url(#SVGID_1_);}
	.st1{fill:url(#SVGID_00000093156061538519118670000015170281762449049248_);}
	.st2{fill:#FFB7B7;}
	.st3{fill:url(#SVGID_00000174567221288869791170000008775215150036888739_);}
	.st4{fill:url(#SVGID_00000039104318375742236750000010343812216497336740_);}
	.st5{fill:url(#SVGID_00000000214697862650034850000013206005257141195680_);}
</style>
<linearGradient id="SVGID_1_" gradientUnits="userSpaceOnUse" x1="1.1348" y1="10" x2="18.8652" y2="10">
	<stop  offset="0" style="stop-color:#FD6365"/>
	<stop  offset="1" style="stop-color:#FC454C"/>
</linearGradient>
<path class="st0" d="M17.4,18.9H2.6c-0.8,0-1.5-0.7-1.5-1.5V4.6c0-0.8,0.7-1.5,1.5-1.5l7.4-2l7.4,2c0.8,0,1.5,0.7,1.5,1.5v12.8
	C18.9,18.2,18.2,18.9,17.4,18.9z"/>
<linearGradient id="SVGID_00000022535041866364556110000001827210058496054443_" gradientUnits="userSpaceOnUse" x1="5.9244" y1="8.922" x2="14.7721" y2="8.922" gradientTransform="matrix(-1 0 0 1 15.907 0)">
	<stop  offset="0" style="stop-color:#FD7B7B"/>
	<stop  offset="1" style="stop-color:#FC535B"/>
</linearGradient>
<path style="fill:url(#SVGID_00000022535041866364556110000001827210058496054443_);" d="M8.4,10.5c1.6-3.1,1.5-6.4,1.6-9.3L2.6,3.3
	c-0.8,0-1.5,0.7-1.5,1.6v11.8C3.9,16,6.7,13.7,8.4,10.5z"/>
<path class="st2" d="M7.4,9.6C9.1,6.8,9.9,3.8,10,1.1l-7.4,2c-0.8,0-1.5,0.7-1.5,1.5v11.6C3.5,14.8,5.7,12.5,7.4,9.6z"/>
<linearGradient id="SVGID_00000055701461167147493190000015297049103960255414_" gradientUnits="userSpaceOnUse" x1="10.0175" y1="8.922" x2="18.8652" y2="8.922">
	<stop  offset="0" style="stop-color:#FD7B7B"/>
	<stop  offset="1" style="stop-color:#FC535B"/>
</linearGradient>
<path style="fill:url(#SVGID_00000055701461167147493190000015297049103960255414_);" d="M11.6,10.5C9.9,7.4,10.1,4.1,10,1.1
	l7.4,2.2c0.8,0,1.5,0.7,1.5,1.6v11.8C16.1,16,13.3,13.7,11.6,10.5z"/>
<path class="st2" d="M12.6,9.6c-1.6-2.8-2.5-5.8-2.6-8.5l7.4,2c0.8,0,1.5,0.7,1.5,1.5v11.6C16.5,14.8,14.3,12.5,12.6,9.6z"/>
<linearGradient id="SVGID_00000079462992481925111160000004903885982878637193_" gradientUnits="userSpaceOnUse" x1="10.0748" y1="2.8062" x2="18.8492" y2="2.8062">
	<stop  offset="0" style="stop-color:#FD6365"/>
	<stop  offset="1" style="stop-color:#FC454C"/>
</linearGradient>
<path style="fill:url(#SVGID_00000079462992481925111160000004903885982878637193_);" d="M18.8,4.4c-0.1-0.7-0.7-1.3-1.5-1.3l-7.3-2
	c1.2,1.2,2.8,2.2,4.7,2.7C16.2,4.3,17.6,4.5,18.8,4.4z"/>
<linearGradient id="SVGID_00000080918710923164193060000007934252306989818287_" gradientUnits="userSpaceOnUse" x1="18.9782" y1="2.8062" x2="27.7526" y2="2.8062" gradientTransform="matrix(-1 0 0 1 28.9241 0)">
	<stop  offset="0" style="stop-color:#FD6365"/>
	<stop  offset="1" style="stop-color:#FC454C"/>
</linearGradient>
<path style="fill:url(#SVGID_00000080918710923164193060000007934252306989818287_);" d="M1.2,4.4c0.1-0.7,0.7-1.3,1.5-1.3l7.3-2
	C8.8,2.3,7.2,3.3,5.3,3.9C3.9,4.3,2.5,4.5,1.2,4.4z"/>
</svg>
