<svg width="20" height="20" viewBox="0 0 20 20" fill="none" xmlns="http://www.w3.org/2000/svg">
<path d="M17 19H3C1.9 19 1 18.1 1 17V8.30005C1 7.20005 1.9 6.30005 3 6.30005H17C18.1 6.30005 19 7.20005 19 8.30005V17C19 18.1 18.1 19 17 19Z" fill="url(#paint0_linear_723_299)"/>
<path d="M16.3996 8.7V3.1C16.3996 1.9 15.3996 1 14.2996 1H5.69961C4.49961 1 3.59961 2 3.59961 3.1V8.7C3.59961 9.1 3.89961 9.3 4.19961 9.3H4.99961C5.39961 9.3 5.59961 9 5.59961 8.7V3.9C5.59961 3.3 6.09961 2.8 6.69961 2.8H13.0996C13.6996 2.8 14.1996 3.3 14.1996 3.9V8.7C14.1996 9.1 14.4996 9.3 14.7996 9.3H15.6996C16.0996 9.3 16.3996 9 16.3996 8.7Z" fill="url(#paint1_linear_723_299)"/>
<path d="M14.1992 6.30005V8.70005C14.1992 9.10005 14.4992 9.30005 14.7992 9.30005H15.6992C16.0992 9.30005 16.2992 9.00005 16.2992 8.70005V6.30005H14.1992Z" fill="#FFDBA1"/>
<path d="M4.19961 9.30005H4.99961C5.39961 9.30005 5.59961 9.00005 5.59961 8.70005V6.30005H3.59961V8.70005C3.59961 9.00005 3.89961 9.30005 4.19961 9.30005Z" fill="#FFDBA1"/>
<path d="M15.4996 16.8H4.49961C3.99961 16.8 3.59961 16.4 3.59961 15.9V11.7C3.59961 11.2 3.99961 10.8 4.49961 10.8H15.4996C15.9996 10.8 16.3996 11.2 16.3996 11.7V15.9C16.3996 16.4 15.9996 16.8 15.4996 16.8Z" fill="#FFDBA1"/>
<defs>
<linearGradient id="paint0_linear_723_299" x1="3.5403" y1="5.21905" x2="16.4797" y2="20.1041" gradientUnits="userSpaceOnUse">
<stop stop-color="#FFC07B"/>
<stop offset="1" stop-color="#EF9E29"/>
</linearGradient>
<linearGradient id="paint1_linear_723_299" x1="5.53291" y1="0.4571" x2="14.4194" y2="10.6799" gradientUnits="userSpaceOnUse">
<stop stop-color="#FFC07B"/>
<stop offset="1" stop-color="#EF9E29"/>
</linearGradient>
</defs>
</svg>
