<svg width="20" height="20" viewBox="0 0 20 20" fill="none" xmlns="http://www.w3.org/2000/svg">
<g clip-path="url(#clip0_721_291)">
<path d="M18 19.1H2C0.9 19.1 0 18.2 0 17.1V2.80005C0 1.70005 0.9 0.800049 2 0.800049H18C19.1 0.800049 20 1.70005 20 2.80005V17.1C20 18.3001 19.1 19.1 18 19.1Z" fill="url(#paint0_linear_721_291)"/>
<path d="M18 0.800049H2C0.9 0.800049 0 1.70005 0 2.80005V4.40005H20V2.80005C20 1.70005 19.1 0.800049 18 0.800049Z" fill="#E5D4FF"/>
<path d="M2 0.800049C0.9 0.800049 0 1.70005 0 2.80005V17.1C0 18.2 0.9 19.1 2 19.1H3.8V0.800049H2Z" fill="#E5D4FF"/>
<path d="M3.8 0.800049H2C0.9 0.800049 0 1.70005 0 2.80005V4.40005H3.8V0.800049Z" fill="#D2BDF9"/>
<path d="M17.6002 8.9H6.6002C6.1002 8.9 5.7002 8.5 5.7002 8V7.4C5.7002 6.9 6.1002 6.5 6.6002 6.5H17.5002C18.0002 6.5 18.4002 6.9 18.4002 7.4V8C18.5002 8.5 18.1002 8.9 17.6002 8.9Z" fill="#E5D4FF"/>
<path d="M14.6002 13.1H6.6002C6.1002 13.1 5.7002 12.7 5.7002 12.2V11.6C5.7002 11.1 6.1002 10.7 6.6002 10.7H14.6002C15.1002 10.7 15.5002 11.1 15.5002 11.6V12.2C15.6002 12.7 15.1002 13.1 14.6002 13.1Z" fill="#E5D4FF"/>
<path d="M14.2002 17.3H6.6002C6.1002 17.3 5.7002 16.9 5.7002 16.4V15.8C5.7002 15.3 6.1002 14.9 6.6002 14.9H14.2002C14.7002 14.9 15.1002 15.3 15.1002 15.8V16.4C15.1002 16.9 14.7002 17.3 14.2002 17.3Z" fill="#E5D4FF"/>
</g>
<defs>
<linearGradient id="paint0_linear_721_291" x1="1.7036" y1="0.456149" x2="18.32" y2="19.5711" gradientUnits="userSpaceOnUse">
<stop stop-color="#D0B4F9"/>
<stop offset="1" stop-color="#B45BE8"/>
</linearGradient>
<clipPath id="clip0_721_291">
<rect width="20" height="20" fill="white"/>
</clipPath>
</defs>
</svg>
