<svg width="20" height="20" viewBox="0 0 20 20" fill="none" xmlns="http://www.w3.org/2000/svg">
<path d="M17 19H3C1.9 19 1 18.069 1 16.931V10H19V16.931C19 18.069 18.1 19 17 19Z" fill="url(#paint0_linear_747_406)"/>
<path d="M10 16.9994L2 13.6905V10H18V13.6905L10 16.9994Z" fill="#FFDBA1"/>
<path d="M18 10H2V2.42105C2 1.5921 2.65574 1 3.57377 1H16.4262C17.3443 1 18 1.5921 18 2.42105V10Z" fill="#FFB14A"/>
<path d="M11 3.30002H4.4C4.1 3.30002 4 3.20002 4 3.00002V2.80002C4 2.60002 4.2 2.40002 4.4 2.40002H11C11.2 2.40002 11.4 2.60002 11.4 2.80002V3.00002C11.4 3.20002 11.2 3.30002 11 3.30002Z" fill="#FFDBA1"/>
<path d="M9.3 5.9H4.4C4.2 5.9 4 5.7 4 5.5V5.4C4 5.2 4.2 5 4.4 5H9.3C9.5 5 9.7 5.2 9.7 5.4V5.5C9.6 5.7 9.5 5.9 9.3 5.9Z" fill="#FFDBA1"/>
<path d="M12.6 8H4.4C4.2 8 4 7.8 4 7.6V7.4C4 7.2 4.2 7 4.4 7H12.7C12.9 7 13.1 7.2 13.1 7.4V7.5C13 7.8 12.9 8 12.6 8Z" fill="#FFDBA1"/>
<defs>
<linearGradient id="paint0_linear_747_406" x1="4.0281" y1="6.37139" x2="16.4419" y2="20.1758" gradientUnits="userSpaceOnUse">
<stop stop-color="#FFC07B"/>
<stop offset="1" stop-color="#EF9E29"/>
</linearGradient>
</defs>
</svg>
