<svg width="20" height="20" viewBox="0 0 20 20" fill="none" xmlns="http://www.w3.org/2000/svg">
<path d="M4.2 0.700012H15.8C17 0.700012 18 1.60001 18 2.70001V17C18 18.1 17 19 15.8 19H8L2 13.4V2.70001C2 1.60001 3 0.700012 4.2 0.700012Z" fill="url(#paint0_linear_754_435)"/>
<path d="M4.40039 12.9H13.2004C13.5004 12.9 13.7004 13.1 13.8004 13.4V13.9C13.8004 14.2 13.6004 14.4 13.3004 14.4H4.40039C4.10039 14.4 3.90039 14.2 3.90039 13.9V13.4C3.90039 13.1 4.10039 12.9 4.40039 12.9ZM3.90039 10.2V10.7C3.90039 11 4.10039 11.2 4.40039 11.2H11.8004C12.1004 11.2 12.3004 11 12.3004 10.7V10.2C12.2004 9.90001 12.0004 9.70001 11.8004 9.70001H4.40039C4.10039 9.70001 3.90039 9.90001 3.90039 10.2ZM3.90039 3.70001V4.20001C3.90039 4.50001 4.10039 4.70001 4.40039 4.70001H11.8004C12.1004 4.70001 12.3004 4.50001 12.3004 4.20001V3.70001C12.2004 3.40001 12.0004 3.20001 11.8004 3.20001H4.40039C4.10039 3.20001 3.90039 3.40001 3.90039 3.70001ZM3.90039 7.00001V7.50001C3.90039 7.80001 4.10039 8.00001 4.40039 8.00001H14.9004C15.2004 8.00001 15.4004 7.80001 15.4004 7.50001V7.00001C15.4004 6.70001 15.2004 6.50001 14.9004 6.50001H4.40039C4.10039 6.50001 3.90039 6.70001 3.90039 7.00001Z" fill="#E6FDFF"/>
<path d="M2 13.4H6.4C7.2 13.4 8 14 8 14.7V19L2 13.4Z" fill="#1469C4"/>
<defs>
<linearGradient id="paint0_linear_754_435" x1="3.6581" y1="0.410612" x2="18.486" y2="17.4682" gradientUnits="userSpaceOnUse">
<stop stop-color="#3DD0F2"/>
<stop offset="1" stop-color="#1283D8"/>
</linearGradient>
</defs>
</svg>
