<svg width="20" height="20" viewBox="0 0 20 20" fill="none" xmlns="http://www.w3.org/2000/svg">
<path fill-rule="evenodd" clip-rule="evenodd" d="M3.00012 5.19999L9.40012 1.99999C9.80012 1.89999 10.3001 1.89999 10.7001 1.99999L17.1001 5.19999C17.9001 5.49999 18.4001 6.19999 18.4001 7.09999V10.1C18.4001 12.8 16.9001 15.3 14.5001 16.7L12.1001 18C10.8001 18.7 9.30012 18.7 8.00012 18L5.60012 16.7C3.20012 15.4 1.70012 12.9 1.70012 10.1V7.09999C1.60012 6.29999 2.10012 5.49999 3.00012 5.19999Z" fill="url(#paint0_linear_749_414)"/>
<path opacity="0.9" fill-rule="evenodd" clip-rule="evenodd" d="M3.00036 5.19999L9.40036 1.99999C9.80036 1.89999 10.3004 1.89999 10.7004 1.99999L17.1004 5.19999C17.9004 5.49999 18.4004 6.19999 18.4004 7.09999V11.1C18.4004 14 16.8004 16.8 14.2004 18.2L12.1004 19.4C10.8004 20.1 9.30036 20.1 8.00036 19.4L5.90036 18.2C3.30036 16.8 1.70036 14.1 1.70036 11.1V7.09999C1.60036 6.29999 2.20036 5.49999 3.00036 5.19999Z" fill="url(#paint1_linear_749_414)"/>
<path opacity="0.573" fill-rule="evenodd" clip-rule="evenodd" d="M10.6996 0.200024L17.0996 3.40002C17.8996 3.70002 18.3996 4.40002 18.3996 5.30002V6.90002C18.2996 6.20002 17.8996 5.60002 17.1996 5.30002L16.9996 5.20002L10.6996 2.00002C10.2996 1.90002 9.89961 1.90002 9.49961 2.00002H9.39961L2.99961 5.20002C2.19961 5.50002 1.69961 6.20002 1.59961 7.00002V5.40002C1.59961 4.50002 2.09961 3.80002 2.89961 3.50002L9.29961 0.300024C9.79961 0.100024 10.2996 0.100024 10.6996 0.200024Z" fill="url(#paint2_linear_749_414)"/>
<path fill-rule="evenodd" clip-rule="evenodd" d="M14.6002 8H5.4002C5.0002 8 4.7002 7.6 4.7002 7.2C4.7002 6.8 5.0002 6.5 5.4002 6.5H14.6002C15.0002 6.5 15.3002 6.8 15.3002 7.2C15.3002 7.6 15.0002 8 14.6002 8Z" fill="#EFE8FF"/>
<path fill-rule="evenodd" clip-rule="evenodd" d="M11.2002 11H5.4002C5.0002 11 4.7002 10.7 4.7002 10.3C4.7002 9.89998 5.0002 9.59998 5.4002 9.59998H11.2002C11.6002 9.59998 11.9002 9.89998 11.9002 10.3C11.9002 10.6 11.6002 11 11.2002 11Z" fill="#EFE8FF"/>
<path fill-rule="evenodd" clip-rule="evenodd" d="M14.6002 14H5.4002C5.0002 14 4.7002 13.7 4.7002 13.3C4.7002 12.9 5.0002 12.6 5.4002 12.6H14.6002C15.0002 12.6 15.3002 12.9 15.3002 13.3C15.3002 13.6 15.0002 14 14.6002 14Z" fill="#EFE8FF"/>
<defs>
<linearGradient id="paint0_linear_749_414" x1="7.84198" y1="2.54921" x2="12.3346" y2="18.1143" gradientUnits="userSpaceOnUse">
<stop stop-color="#9572FF"/>
<stop offset="1" stop-color="#866EF1"/>
</linearGradient>
<linearGradient id="paint1_linear_749_414" x1="8.07477" y1="2.08267" x2="12.7591" y2="19.6058" gradientUnits="userSpaceOnUse">
<stop stop-color="#9572FF"/>
<stop offset="1" stop-color="#786EF1"/>
</linearGradient>
<linearGradient id="paint2_linear_749_414" x1="4.44982" y1="3.47727" x2="12.1367" y2="7.16179" gradientUnits="userSpaceOnUse">
<stop stop-color="#8D61FF"/>
<stop offset="1" stop-color="#7B6DFF"/>
</linearGradient>
</defs>
</svg>
