<svg width="20" height="20" viewBox="0 0 20 20" fill="none" xmlns="http://www.w3.org/2000/svg">
<path d="M2.90039 6H17.0004C18.0004 6 18.9004 6.9 18.9004 7.9V18.2C18.9004 19.2 18.1004 20 17.1004 20H2.90039C1.90039 20 1.10039 19.2 1.10039 18.2V7.8C1.00039 6.8 1.90039 6 2.90039 6Z" fill="url(#paint0_linear_752_429)"/>
<path d="M1.09961 9V1.8C1.09961 0.8 1.99961 0 2.99961 0H16.9996C17.9996 0 18.8996 0.9 18.8996 1.9V9H1.09961Z" fill="#FE9798"/>
<path d="M17.0004 6.50001H12.8004V2.30001C12.8004 1.70001 12.3004 1.20001 11.6004 1.20001H11.3004C10.7004 1.20001 10.2004 1.70001 10.2004 2.30001V6.50001H6.00039C5.40039 6.50001 4.90039 7.00001 4.90039 7.60001V8.00001C4.90039 8.60001 5.40039 9.10001 6.00039 9.10001H10.2004V13.3C10.2004 13.9 10.7004 14.4 11.3004 14.4H11.7004C12.3004 14.4 12.8004 13.9 12.8004 13.3V9.10001H17.0004C17.6004 9.10001 18.1004 8.60001 18.1004 7.90001V7.60001C18.1004 7.00001 17.6004 6.50001 17.0004 6.50001Z" fill="white"/>
<path d="M7.9002 14.4H3.5002C3.1002 14.4 2.7002 14.1 2.7002 13.6C2.7002 13.2 3.0002 12.8 3.5002 12.8H7.9002C8.3002 12.8 8.7002 13.1 8.7002 13.6C8.7002 14.1 8.4002 14.4 7.9002 14.4Z" fill="#FFBBBE"/>
<path d="M15.3002 17.6H3.5002C3.1002 17.6 2.7002 17.3 2.7002 16.8C2.7002 16.4 3.0002 16 3.5002 16H15.2002C15.6002 16 16.0002 16.3 16.0002 16.8C16.0002 17.3 15.7002 17.6 15.3002 17.6Z" fill="#FFBBBE"/>
<defs>
<linearGradient id="paint0_linear_752_429" x1="3.90999" y1="5.4169" x2="15.613" y2="20.0928" gradientUnits="userSpaceOnUse">
<stop stop-color="#FF7676"/>
<stop offset="1" stop-color="#FC3D45"/>
</linearGradient>
</defs>
</svg>
