<svg width="20" height="20" viewBox="0 0 20 20" fill="none" xmlns="http://www.w3.org/2000/svg">
<path fill-rule="evenodd" clip-rule="evenodd" d="M1.3 4H18.6C19.1 4 19.2 4 19.4 4.1C19.6 4.2 19.7 4.3 19.8 4.5C20 4.7 20 4.8 20 5.3V17.7C20 18.1 20 18.3 19.9 18.5C19.8 18.7 19.7 18.8 19.5 18.9C19.3 19 19.1 19 18.7 19H1.3C0.8 19 0.7 19 0.5 18.9C0.3 18.8 0.2 18.7 0.1 18.5C0 18.3 0 18.2 0 17.7V5.3C0 4.9 0 4.7 0.1 4.5C0.2 4.3 0.3 4.2 0.5 4.1C0.7 4 0.9 4 1.3 4Z" fill="url(#paint0_linear_756_451)"/>
<path fill-rule="evenodd" clip-rule="evenodd" d="M5.8 6.09998C3 6.09998 0.6 10.3 0 16V17.6C0 18.1 0 18.3 0.1 18.5C0.2 18.7 0.3 18.8 0.5 18.9C0.7 18.9 0.9 19 1.3 19H11.8C11.8 11.9 9.2 6.09998 5.8 6.09998Z" fill="#EC8A12"/>
<path d="M5.9002 8.30002C7.94365 8.30002 9.6002 6.64348 9.6002 4.60002C9.6002 2.55657 7.94365 0.900024 5.9002 0.900024C3.85674 0.900024 2.2002 2.55657 2.2002 4.60002C2.2002 6.64348 3.85674 8.30002 5.9002 8.30002Z" fill="#FF9F04"/>
<path fill-rule="evenodd" clip-rule="evenodd" d="M17.5 8.89995H11.6C11 8.89995 10.5 8.39995 10.5 7.79995C10.5 7.19995 11 6.69995 11.6 6.69995H17.5C18.1 6.69995 18.6 7.19995 18.6 7.79995C18.6 8.39995 18.2 8.89995 17.5 8.89995Z" fill="#FFF7EB"/>
<path fill-rule="evenodd" clip-rule="evenodd" d="M17.4996 12.6H13.6996C13.0996 12.6 12.5996 12.1 12.5996 11.5C12.5996 10.9 13.0996 10.4 13.6996 10.4H17.4996C18.0996 10.4 18.5996 10.9 18.5996 11.5C18.5996 12.1 18.1996 12.6 17.4996 12.6Z" fill="#FFF7EB"/>
<defs>
<linearGradient id="paint0_linear_756_451" x1="19.7543" y1="16.843" x2="4.05936" y2="3.04972" gradientUnits="userSpaceOnUse">
<stop offset="0.085353" stop-color="#FEB039"/>
<stop offset="0.2237" stop-color="#FEB23F"/>
<stop offset="0.4001" stop-color="#FEB84E"/>
<stop offset="0.5971" stop-color="#FFC169"/>
<stop offset="0.8078" stop-color="#FFCE8D"/>
<stop offset="0.8607" stop-color="#FFD297"/>
</linearGradient>
</defs>
</svg>
