<svg width="20" height="20" viewBox="0 0 20 20" fill="none" xmlns="http://www.w3.org/2000/svg">
<path d="M15.8 19H4.2C3 19 2 18.1 2 17V2.69995C2 1.59995 3 0.699951 4.2 0.699951H12L18 6.29995V17C18 18.1 17 19 15.8 19Z" fill="url(#paint0_linear_702_234)"/>
<path d="M13.2004 6.80005H4.40039C4.10039 6.80005 3.90039 6.60005 3.90039 6.30005V5.80005C3.90039 5.50005 4.10039 5.30005 4.40039 5.30005H13.3004C13.6004 5.30005 13.8004 5.50005 13.8004 5.80005V6.30005C13.7004 6.60005 13.5004 6.80005 13.2004 6.80005Z" fill="#E5D4FF"/>
<path d="M11.8004 10H4.40039C4.10039 10 3.90039 9.8 3.90039 9.5V9C3.90039 8.7 4.10039 8.5 4.40039 8.5H11.8004C12.1004 8.5 12.3004 8.7 12.3004 9V9.5C12.2004 9.8 12.0004 10 11.8004 10Z" fill="#E5D4FF"/>
<path d="M11.8004 16.5H4.40039C4.10039 16.5 3.90039 16.3 3.90039 16V15.5C3.90039 15.2 4.10039 15 4.40039 15H11.8004C12.1004 15 12.3004 15.2 12.3004 15.5V16C12.2004 16.3 12.0004 16.5 11.8004 16.5Z" fill="#E5D4FF"/>
<path d="M14.9004 13.2H4.40039C4.10039 13.2 3.90039 13 3.90039 12.7V12.2C3.90039 11.9 4.10039 11.7 4.40039 11.7H14.9004C15.2004 11.7 15.4004 11.9 15.4004 12.2V12.7C15.4004 13 15.2004 13.2 14.9004 13.2Z" fill="#E5D4FF"/>
<path d="M18 6.29995H13.6C12.8 6.29995 12 5.69995 12 4.99995V0.699951L18 6.29995Z" fill="#966CD8"/>
<defs>
<linearGradient id="paint0_linear_702_234" x1="1.528" y1="2.26415" x2="16.3559" y2="19.3218" gradientUnits="userSpaceOnUse">
<stop stop-color="#D0B4F9"/>
<stop offset="1" stop-color="#B45BE8"/>
</linearGradient>
</defs>
</svg>
