<svg width="20" height="20" viewBox="0 0 20 20" fill="none" xmlns="http://www.w3.org/2000/svg">
<path fill-rule="evenodd" clip-rule="evenodd" d="M2.99961 0.5H17.1996C17.6996 0.5 17.7996 0.5 18.0996 0.6C18.2996 0.7 18.3996 0.8 18.4996 1C18.6996 1.2 18.6996 1.3 18.6996 1.8V18C18.6996 18.4 18.6996 18.6 18.5996 18.8C18.4996 19 18.3996 19.1 18.1996 19.2C17.9996 19.3 17.7996 19.3 17.2996 19.3H2.99961C2.49961 19.3 2.39961 19.3 2.09961 19.2C1.79961 19.1 1.79961 19 1.69961 18.8C1.59961 18.6 1.59961 18.5 1.59961 18V1.9C1.59961 1.5 1.59961 1.3 1.69961 1.1C1.79961 0.9 1.89961 0.8 2.09961 0.7C2.29961 0.6 2.59961 0.5 2.99961 0.5Z" fill="url(#paint0_linear_771_485)"/>
<path fill-rule="evenodd" clip-rule="evenodd" d="M8.40039 14.3H4.10039C3.70039 14.3 3.40039 13.9 3.40039 13.4C3.40039 12.9 3.70039 12.5 4.10039 12.5H8.40039C8.80039 12.5 9.10039 12.9 9.10039 13.4C9.10039 13.9 8.90039 14.3 8.40039 14.3Z" fill="#FFF7EB"/>
<path fill-rule="evenodd" clip-rule="evenodd" d="M13.4004 17.9H4.10039C3.70039 17.9 3.40039 17.5 3.40039 17C3.40039 16.5 3.70039 16.1 4.10039 16.1H13.4004C13.8004 16.1 14.1004 16.5 14.1004 17C14.1004 17.5 13.9004 17.9 13.4004 17.9Z" fill="#FFF7EB"/>
<path d="M6.2998 6.7C6.2998 10.1 9.0998 12.9 12.4998 12.9C15.8998 12.9 18.6998 10.1 18.6998 6.7C18.6998 3.3 15.8998 0.5 12.4998 0.5C9.0998 0.5 6.2998 3.4 6.2998 6.7ZM7.8998 6.7C7.8998 4.1 9.8998 2.1 12.4998 2.1C15.0998 2.1 17.0998 4.1 17.0998 6.7C17.0998 9.3 14.9998 11.3 12.4998 11.3C9.9998 11.3 7.8998 9.3 7.8998 6.7Z" fill="#FFEDC0"/>
<path d="M12.2 3.29994V6.39994L9.49997 8.09994C9.29997 8.19994 9.19997 8.49994 9.29997 8.69994C9.49997 9.19994 9.89997 9.09994 10.1 8.99994L13.3 6.99994V3.39994C13.3 3.19994 13.2 2.79994 12.7 2.89994C12.4 2.99994 12.2 3.09994 12.2 3.29994Z" fill="#FFEDC0"/>
<defs>
<linearGradient id="paint0_linear_771_485" x1="18.3866" y1="17.2737" x2="2.47361" y2="3.2889" gradientUnits="userSpaceOnUse">
<stop offset="0.085353" stop-color="#FEB039"/>
<stop offset="0.2237" stop-color="#FEB23F"/>
<stop offset="0.4001" stop-color="#FEB84E"/>
<stop offset="0.5971" stop-color="#FFC169"/>
<stop offset="0.8078" stop-color="#FFCE8D"/>
<stop offset="0.8607" stop-color="#FFD297"/>
</linearGradient>
</defs>
</svg>
