<svg width="20" height="20" viewBox="0 0 20 20" fill="none" xmlns="http://www.w3.org/2000/svg">
<path d="M17.3996 18.9H2.59961C1.79961 18.9 1.09961 18.2 1.09961 17.4V4.59998C1.09961 3.79998 1.79961 3.09998 2.59961 3.09998L9.99961 1.09998L17.3996 3.09998C18.1996 3.09998 18.8996 3.79998 18.8996 4.59998V17.4C18.8996 18.2 18.1996 18.9 17.3996 18.9Z" fill="url(#paint0_linear_759_463)"/>
<path d="M8.39961 10.5C9.99961 7.39995 9.89961 4.09995 9.99961 1.19995L2.59961 3.29995C1.79961 3.29995 1.09961 3.99995 1.09961 4.89995V16.7C3.89961 16 6.69961 13.7 8.39961 10.5Z" fill="url(#paint1_linear_759_463)"/>
<path d="M7.39961 9.59998C9.09961 6.79998 9.89961 3.79998 9.99961 1.09998L2.59961 3.09998C1.79961 3.09998 1.09961 3.79998 1.09961 4.59998V16.2C3.49961 14.8 5.69961 12.5 7.39961 9.59998Z" fill="#FFB7B7"/>
<path d="M11.6 10.5C9.9 7.39998 10.1 4.09998 10 1.09998L17.4 3.29998C18.2 3.29998 18.9 3.99998 18.9 4.89998V16.7C16.1 16 13.3 13.7 11.6 10.5Z" fill="url(#paint2_linear_759_463)"/>
<path d="M12.6 9.59998C11 6.79998 10.1 3.79998 10 1.09998L17.4 3.09998C18.2 3.09998 18.9 3.79998 18.9 4.59998V16.2C16.5 14.8 14.3 12.5 12.6 9.59998Z" fill="#FFB7B7"/>
<path d="M18.8 4.39998C18.7 3.69998 18.1 3.09998 17.3 3.09998L10 1.09998C11.2 2.29998 12.8 3.29998 14.7 3.79998C16.2 4.29998 17.6 4.49998 18.8 4.39998Z" fill="url(#paint3_linear_759_463)"/>
<path d="M1.2002 4.39998C1.3002 3.69998 1.9002 3.09998 2.7002 3.09998L10.0002 1.09998C8.8002 2.29998 7.2002 3.29998 5.3002 3.89998C3.9002 4.29998 2.5002 4.49998 1.2002 4.39998Z" fill="url(#paint4_linear_759_463)"/>
<defs>
<linearGradient id="paint0_linear_759_463" x1="1.13441" y1="9.99998" x2="18.8648" y2="9.99998" gradientUnits="userSpaceOnUse">
<stop stop-color="#FD6365"/>
<stop offset="1" stop-color="#FC454C"/>
</linearGradient>
<linearGradient id="paint1_linear_759_463" x1="9.98221" y1="8.92195" x2="1.13451" y2="8.92195" gradientUnits="userSpaceOnUse">
<stop stop-color="#FD7B7B"/>
<stop offset="1" stop-color="#FC535B"/>
</linearGradient>
<linearGradient id="paint2_linear_759_463" x1="10.0175" y1="8.92198" x2="18.8652" y2="8.92198" gradientUnits="userSpaceOnUse">
<stop stop-color="#FD7B7B"/>
<stop offset="1" stop-color="#FC535B"/>
</linearGradient>
<linearGradient id="paint3_linear_759_463" x1="10.0748" y1="2.80618" x2="18.8492" y2="2.80618" gradientUnits="userSpaceOnUse">
<stop stop-color="#FD6365"/>
<stop offset="1" stop-color="#FC454C"/>
</linearGradient>
<linearGradient id="paint4_linear_759_463" x1="9.9461" y1="2.80618" x2="1.1717" y2="2.80618" gradientUnits="userSpaceOnUse">
<stop stop-color="#FD6365"/>
<stop offset="1" stop-color="#FC454C"/>
</linearGradient>
</defs>
</svg>
