<svg width="20" height="20" viewBox="0 0 20 20" fill="none" xmlns="http://www.w3.org/2000/svg">
<path d="M17.5 19H2.5C1.7 19 1 18.3 1 17.5V13.2C1 12.3 1.7 11.7 2.5 11.7H17.4C18.3 11.7 18.9 12.4 18.9 13.2V17.5C19 18.3 18.3 19 17.5 19Z" fill="url(#paint0_linear_699_206)"/>
<path d="M1 15.3V13.2C1 12.3 1.7 11.7 2.5 11.7H17.4C18.3 11.7 18.9 12.4 18.9 13.2V15.3H1Z" fill="url(#paint1_linear_699_206)"/>
<path d="M16.3996 15.3H3.59961V2.69995C3.59961 1.59995 4.49961 0.699951 5.59961 0.699951H16.3996V15.3Z" fill="#A1F7CB"/>
<path d="M16.4004 0.699951V5.29995H18.2004V2.69995C18.3004 1.59995 17.4004 0.799951 16.4004 0.699951Z" fill="#64E29D"/>
<path d="M13.7 3.6H5.9C5.7 3.6 5.5 3.4 5.5 3.2V2.9C5.5 2.7 5.7 2.5 5.9 2.5H13.7C13.9 2.5 14.1 2.7 14.1 2.9V3.2C14.1 3.4 13.9 3.6 13.7 3.6Z" fill="#64E29D"/>
<path d="M11.6 6.29995H5.9C5.7 6.29995 5.5 6.09995 5.5 5.89995V5.59995C5.5 5.39995 5.7 5.19995 5.9 5.19995H11.6C11.8 5.19995 12 5.39995 12 5.59995V5.89995C12 6.09995 11.8 6.29995 11.6 6.29995Z" fill="#64E29D"/>
<path d="M13.7 9.00002H5.9C5.7 9.00002 5.5 8.80002 5.5 8.60002V8.30002C5.5 8.10002 5.7 7.90002 5.9 7.90002H13.7C13.9 7.90002 14.1 8.10002 14.1 8.30002V8.60002C14.1 8.80002 13.9 9.00002 13.7 9.00002Z" fill="#64E29D"/>
<path d="M12.9998 14.5C14.2148 14.5 15.1998 13.515 15.1998 12.3C15.1998 11.0849 14.2148 10.1 12.9998 10.1C11.7848 10.1 10.7998 11.0849 10.7998 12.3C10.7998 13.515 11.7848 14.5 12.9998 14.5Z" fill="#64E29D"/>
<defs>
<linearGradient id="paint0_linear_699_206" x1="4.7217" y1="9.25165" x2="15.2783" y2="21.3956" gradientUnits="userSpaceOnUse">
<stop stop-color="#64ED9F"/>
<stop offset="1" stop-color="#1FBF54"/>
</linearGradient>
<linearGradient id="paint1_linear_699_206" x1="5.3928" y1="8.66835" x2="14.5447" y2="19.1966" gradientUnits="userSpaceOnUse">
<stop stop-color="#8FEAB4"/>
<stop offset="1" stop-color="#3EE56E"/>
</linearGradient>
</defs>
</svg>
