<svg width="20" height="20" viewBox="0 0 20 20" fill="none" xmlns="http://www.w3.org/2000/svg">
<path fill-rule="evenodd" clip-rule="evenodd" d="M9.99961 19.2H3.19961C1.99961 19.2 1.09961 18.3 1.09961 17.2V2.90002C1.09961 1.80002 2.09961 0.900024 3.19961 0.900024H9.99961V19.2Z" fill="url(#paint0_linear_700_217)"/>
<path fill-rule="evenodd" clip-rule="evenodd" d="M16.9 19.2H10V0.900024H16.9C18 0.900024 18.9 1.80002 18.9 2.90002V17.1C19 18.3 18 19.2 16.9 19.2Z" fill="#AEF0FF"/>
<path fill-rule="evenodd" clip-rule="evenodd" d="M17.5 4.3H11.3C11.1 4.3 11 4.1 11 3.8V3.5C11 3.2 11.1 3 11.3 3H17.5C17.7 3 17.8 3.2 17.8 3.5V3.9C17.8 4.1 17.7 4.3 17.5 4.3Z" fill="url(#paint1_linear_700_217)"/>
<path fill-rule="evenodd" clip-rule="evenodd" d="M15.3 7.20002H11.3C11.2 7.20002 11 7.00002 11 6.80002V6.40002C11 6.10002 11.1 5.90002 11.3 5.90002H15.3C15.5 5.90002 15.6 6.10002 15.6 6.40002V6.80002C15.6 7.00002 15.5 7.20002 15.3 7.20002Z" fill="url(#paint2_linear_700_217)"/>
<path fill-rule="evenodd" clip-rule="evenodd" d="M17.3 10.1H11.5C11.3 10.1 11 9.90005 11 9.70005V9.30005C11 9.00005 11.2 8.80005 11.5 8.80005H17.3C17.6 8.80005 17.8 9.00005 17.8 9.30005V9.70005C17.8 9.90005 17.6 10.1 17.3 10.1Z" fill="url(#paint3_linear_700_217)"/>
<path fill-rule="evenodd" clip-rule="evenodd" d="M15.3 17.4H11.3C11.2 17.4 11 17.2 11 17V16.6C11 16.3 11.1 16.1 11.3 16.1H15.3C15.5 16.1 15.6 16.3 15.6 16.6V17C15.6 17.2 15.5 17.4 15.3 17.4Z" fill="url(#paint4_linear_700_217)"/>
<path d="M5.5002 8.6C7.04659 8.6 8.3002 7.3464 8.3002 5.8C8.3002 4.2536 7.04659 3 5.5002 3C3.9538 3 2.7002 4.2536 2.7002 5.8C2.7002 7.3464 3.9538 8.6 5.5002 8.6Z" fill="#C0F6FF"/>
<path fill-rule="evenodd" clip-rule="evenodd" d="M7.7998 13.2H3.1998C2.9998 13.2 2.7998 13 2.7998 12.8V12.4C2.7998 12.2 2.9998 12 3.1998 12H7.89981C8.09981 12 8.2998 12.2 8.2998 12.4V12.8C8.2998 13 8.0998 13.2 7.7998 13.2Z" fill="#C0F6FF"/>
<path fill-rule="evenodd" clip-rule="evenodd" d="M6.0998 16.1H3.1998C2.9998 16.1 2.7998 15.9 2.7998 15.7V15.3C2.7998 15.1 2.9998 14.9 3.1998 14.9H6.0998C6.2998 14.9 6.4998 15.1 6.4998 15.3V15.7C6.4998 15.9 6.2998 16.1 6.0998 16.1Z" fill="#C0F6FF"/>
<defs>
<linearGradient id="paint0_linear_700_217" x1="-0.0695483" y1="2.99642" x2="12.2939" y2="17.219" gradientUnits="userSpaceOnUse">
<stop stop-color="#3DD0F2"/>
<stop offset="1" stop-color="#1283D8"/>
</linearGradient>
<linearGradient id="paint1_linear_700_217" x1="12.7118" y1="1.7185" x2="16.0954" y2="5.6109" gradientUnits="userSpaceOnUse">
<stop stop-color="#3DD0F2"/>
<stop offset="1" stop-color="#1283D8"/>
</linearGradient>
<linearGradient id="paint2_linear_700_217" x1="12.0948" y1="5.15492" x2="14.5381" y2="7.96552" gradientUnits="userSpaceOnUse">
<stop stop-color="#3DD0F2"/>
<stop offset="1" stop-color="#1283D8"/>
</linearGradient>
<linearGradient id="paint3_linear_700_217" x1="12.741" y1="7.54605" x2="16.0753" y2="11.3816" gradientUnits="userSpaceOnUse">
<stop stop-color="#3DD0F2"/>
<stop offset="1" stop-color="#1283D8"/>
</linearGradient>
<linearGradient id="paint4_linear_700_217" x1="12.0948" y1="15.3092" x2="14.5381" y2="18.1199" gradientUnits="userSpaceOnUse">
<stop stop-color="#3DD0F2"/>
<stop offset="1" stop-color="#1283D8"/>
</linearGradient>
</defs>
</svg>
