<svg width="20" height="20" viewBox="0 0 20 20" fill="none" xmlns="http://www.w3.org/2000/svg">
<path d="M15.3002 18.5H2.9002C1.9002 18.5 1.2002 17.9 1.2002 17V2.5C1.2002 1.6 1.9002 1 2.9002 1H15.4002C16.4002 1 17.1002 1.6 17.1002 2.5V17C17.1002 17.9 16.3002 18.5 15.3002 18.5Z" fill="url(#paint0_linear_735_333)"/>
<path d="M12.4 13.5H4.3C3.8 13.5 3.5 13.1 3.5 12.7V12.2C3.5 11.7 3.9 11.4 4.3 11.4H12.4C12.9 11.4 13.2 11.8 13.2 12.2V12.7C13.2 13.2 12.9 13.5 12.4 13.5Z" fill="#3ACE76"/>
<path d="M17.2 19.2C17.6 18.5 17.6 17.7 17.2 17L13.4 8.69995C13.1 8.09995 12.5 7.69995 11.9 7.69995H11.8C11.1 7.69995 10.4 8.09995 10 8.79995L6.3 17C5.9 17.6 5.9 18.5 6.3 19.1V19.2C6.7 19.7 7.3 20 7.9 20H15.5C16.2 20 16.9 19.7 17.2 19.2Z" fill="#D7FFE9"/>
<path d="M12.3 5.19998H4.3C3.8 5.19998 3.5 4.79998 3.5 4.39998V3.89998C3.5 3.39998 3.9 3.09998 4.3 3.09998H12.3C12.8 3.09998 13.1 3.49998 13.1 3.89998V4.39998C13.1 4.89998 12.7 5.19998 12.3 5.19998Z" fill="#3ACE76"/>
<path d="M7.20039 9.39997H4.30039C3.80039 9.39997 3.40039 8.99997 3.40039 8.59997V8.09997C3.40039 7.59997 3.80039 7.29997 4.20039 7.29997H7.10039C7.60039 7.19997 8.00039 7.59997 8.00039 8.09997V8.59997C8.00039 8.99997 7.60039 9.39997 7.20039 9.39997Z" fill="#3ACE76"/>
<path d="M11.7996 8.99998C13.5669 8.99998 14.9996 7.56729 14.9996 5.79998C14.9996 4.03266 13.5669 2.59998 11.7996 2.59998C10.0323 2.59998 8.59961 4.03266 8.59961 5.79998C8.59961 7.56729 10.0323 8.99998 11.7996 8.99998Z" fill="#D7FFE9"/>
<path d="M18.4 20H5C4.2 20 3.5 19.3 3.5 18.5C3.5 17.7 4.2 17 5 17H18.5C19.3 17 20 17.7 20 18.5C19.9 19.3 19.3 20 18.4 20Z" fill="#26C46D"/>
<path d="M6.3 17C5.9 17.6 5.9 18.5 6.3 19.1V19.2C6.6 19.6 7.1 19.9 7.6 20H15.9C16.4 19.9 16.9 19.7 17.2 19.2C17.2 19.2 17.2 19.2 17.2 19.1C17.6 18.5 17.6 17.6 17.2 17V16.9L6.3 17Z" fill="#64E29A"/>
<defs>
<linearGradient id="paint0_linear_735_333" x1="1.1157" y1="9.75" x2="17.0508" y2="9.75" gradientUnits="userSpaceOnUse">
<stop stop-color="#8FEAB4"/>
<stop offset="1" stop-color="#3EE56E"/>
</linearGradient>
</defs>
</svg>
