<svg xmlns="http://www.w3.org/2000/svg" width="20" height="20" viewBox="0 0 20 20">
  <defs>
    <linearGradient id="默认-侧边栏-首页-a" x1="1.889%" x2="88.865%" y1="0%" y2="100%">
      <stop offset="0%" stop-color="#FF7676"/>
      <stop offset="100%" stop-color="#FB252F"/>
      <stop offset="100%" stop-color="#FC3D45"/>
    </linearGradient>
  </defs>
  <g fill="none" fill-rule="evenodd">
    <rect width="20" height="20" fill="#FFF" opacity="0"/>
    <path fill="url(#默认-侧边栏-首页-a)" fill-rule="nonzero" d="M1.68788684,7.22556242 L8.68788684,1.1405951 C9.44035017,0.48649299 10.5596498,0.48649299 11.3121132,1.1405951 L18.3121132,7.22556242 C18.7490855,7.60541417 19,8.15599349 19,8.73498584 L19,18 C19,18.5522847 18.5522847,19 18,19 L2,19 C1.44771525,19 1,18.5522847 1,18 L1,8.73498584 C1,8.15599349 1.25091453,7.60541417 1.68788684,7.22556242 Z"/>
    <rect width="6" height="8" x="7" y="12" fill="#FFBEBE" fill-rule="nonzero" rx="1"/>
    <path fill="#FEB1B2" fill-rule="nonzero" d="M12,12 C12.5522847,12 13,12.4477153 13,13 L13,19 L7,19 L7,19 L7,13 C7,12.4477153 7.44771525,12 8,12 L12,12 Z"/>
  </g>
</svg>
