<svg width="20" height="20" viewBox="0 0 20 20" fill="none" xmlns="http://www.w3.org/2000/svg">
<path d="M17 19H3C1.9 19 1 18.1 1 17V10.3C1 9.19999 1.9 8.29999 3 8.29999H17C18.1 8.29999 19 9.19999 19 10.3V17C19 18.1 18.1 19 17 19Z" fill="url(#paint0_linear_697_181)"/>
<path d="M11.5 16C10.5 16.3 9.5 16.3 8.6 16C8.6 16 2.5 14.2 2.5 12.1V7.50002C2.5 6.60002 3.3 5.90002 4.2 5.90002H16C16.9 5.90002 17.7 6.60002 17.7 7.50002V12.1C17.6 13.9 11.5 16 11.5 16Z" fill="#FFDBA1"/>
<path d="M3.00039 8.29999H17.0004C17.2004 8.29999 17.4004 8.29999 17.6004 8.39999V7.39999C17.6004 6.49999 16.8004 5.79999 15.9004 5.79999H4.10039C3.20039 5.79999 2.40039 6.49999 2.40039 7.39999V8.39999C2.60039 8.39999 2.80039 8.29999 3.00039 8.29999Z" fill="url(#paint1_linear_697_181)"/>
<path d="M16.1004 8.30001H3.90039V1.90001C3.90039 1.20001 4.40039 0.700012 5.10039 0.700012H14.9004C15.6004 0.700012 16.1004 1.20001 16.1004 1.90001V8.30001Z" fill="#FFB14A"/>
<path d="M12.7002 3.30002H6.1002C5.8002 3.30002 5.7002 3.20002 5.7002 3.00002V2.80002C5.7002 2.60002 5.9002 2.40002 6.1002 2.40002H12.7002C12.9002 2.40002 13.1002 2.60002 13.1002 2.80002V3.00002C13.1002 3.20002 12.9002 3.30002 12.7002 3.30002Z" fill="#FFDBA1"/>
<path d="M11.0002 5.30002H6.1002C5.9002 5.30002 5.7002 5.10002 5.7002 4.90002V4.80002C5.7002 4.60002 5.9002 4.40002 6.1002 4.40002H11.0002C11.2002 4.40002 11.4002 4.60002 11.4002 4.80002V4.90002C11.3002 5.10002 11.2002 5.30002 11.0002 5.30002Z" fill="#FFDBA1"/>
<path d="M14.3002 7.29999H6.1002C5.9002 7.29999 5.7002 7.09999 5.7002 6.89999V6.69999C5.7002 6.49999 5.9002 6.29999 6.1002 6.29999H14.4002C14.6002 6.29999 14.8002 6.49999 14.8002 6.69999V6.79999C14.7002 7.09999 14.6002 7.29999 14.3002 7.29999Z" fill="#FFDBA1"/>
<defs>
<linearGradient id="paint0_linear_697_181" x1="4.0281" y1="6.79229" x2="15.9784" y2="20.5395" gradientUnits="userSpaceOnUse">
<stop stop-color="#FFC07B"/>
<stop offset="1" stop-color="#EF9E29"/>
</linearGradient>
<linearGradient id="paint1_linear_697_181" x1="2.40049" y1="7.15099" x2="17.6068" y2="7.15099" gradientUnits="userSpaceOnUse">
<stop stop-color="#FFC07B"/>
<stop offset="1" stop-color="#EF9E29"/>
</linearGradient>
</defs>
</svg>
