<svg width="20" height="20" viewBox="0 0 20 20" fill="none" xmlns="http://www.w3.org/2000/svg">
<path fill-rule="evenodd" clip-rule="evenodd" d="M16.2996 19.2H3.59961C2.49961 19.2 1.59961 18.3 1.59961 17.2V2.90002C1.59961 1.80002 2.49961 0.900024 3.59961 0.900024H16.2996C17.3996 0.900024 18.2996 1.80002 18.2996 2.90002V17.2C18.3996 18.3 17.4996 19.2 16.2996 19.2Z" fill="url(#paint0_linear_725_307)"/>
<path fill-rule="evenodd" clip-rule="evenodd" d="M13.8 4.59998H4.5C4.2 4.59998 4 4.39998 4 3.99998V3.69998C4 3.39998 4.2 3.09998 4.5 3.09998H13.8C14.1 3.09998 14.3 3.29998 14.3 3.69998V4.19998C14.3 4.39998 14.1 4.59998 13.8 4.59998Z" fill="#C0F6FF"/>
<path fill-rule="evenodd" clip-rule="evenodd" d="M9.50039 8.20001H4.30039C4.10039 8.20001 3.90039 8.00001 3.90039 7.70001V7.30001C3.90039 7.00001 4.00039 6.70001 4.30039 6.70001H9.50039C9.80039 6.70001 9.90039 6.90001 9.90039 7.30001V7.80001C9.90039 8.00001 9.70039 8.20001 9.50039 8.20001Z" fill="#C0F6FF"/>
<path d="M17.9 12.2C14.8 12.2 12.3 9.49998 12.2 6.09998C12.1 9.49998 9.6 12.2 6.5 12.2C9.6 12.2 12.1 14.9 12.2 18.3C12.3 14.9 14.8 12.2 17.9 12.2Z" fill="#DDFF92"/>
<defs>
<linearGradient id="paint0_linear_725_307" x1="2.41191" y1="1.34212" x2="17.6117" y2="18.8276" gradientUnits="userSpaceOnUse">
<stop stop-color="#3DD0F2"/>
<stop offset="1" stop-color="#1283D8"/>
</linearGradient>
</defs>
</svg>
