<svg width="18" height="19" viewBox="0 0 18 19" fill="none" xmlns="http://www.w3.org/2000/svg">
<path d="M12.5 19H2C0.9 19 0 18.1 0 17V2.69995C0 1.59995 0.9 0.699951 2 0.699951H12.5C13.6 0.699951 14.5 1.59995 14.5 2.69995V17C14.5 18.1 13.6 19 12.5 19Z" fill="url(#paint0_linear_701_228)"/>
<path d="M15.0004 7.79995H3.10039C2.40039 7.79995 1.90039 7.39995 1.90039 6.89995V4.09995C1.90039 3.59995 2.40039 3.19995 3.10039 3.19995H15.0004C15.7004 3.19995 18.0004 4.29995 18.0004 5.49995C18.0004 6.69995 15.6004 7.79995 15.0004 7.79995Z" fill="#FFE6C7"/>
<path d="M7.00039 14.9999H17.0004C17.6004 14.9999 18.0004 14.5999 18.0004 14.0999V11.2999C18.0004 10.7999 17.5004 10.3999 17.0004 10.3999H7.00039C6.40039 10.3999 4.40039 11.4999 4.40039 12.6999C4.40039 13.8999 6.40039 14.9999 7.00039 14.9999Z" fill="#FFE6C7"/>
<path d="M16.8 10.3999H14.5V14.9999H16.8C17.5 14.9999 18 14.5999 18 14.0999V11.2999C18 10.7999 17.5 10.3999 16.8 10.3999Z" fill="#FFDBA1"/>
<path d="M14.9996 3.19995H14.5996V7.79995H14.9996C15.6996 7.79995 17.9996 6.79995 17.9996 5.49995C17.9996 4.29995 15.5996 3.19995 14.9996 3.19995Z" fill="#FFDBA1"/>
<defs>
<linearGradient id="paint0_linear_701_228" x1="0.1701" y1="1.68295" x2="14.3911" y2="18.0424" gradientUnits="userSpaceOnUse">
<stop stop-color="#FFC07B"/>
<stop offset="1" stop-color="#EF9E29"/>
</linearGradient>
</defs>
</svg>
