<svg width="20" height="20" viewBox="0 0 20 20" fill="none" xmlns="http://www.w3.org/2000/svg">
<path d="M2.1 1H15.8C16.4 1 16.9 1.4 16.9 2V17C16.9 17.6 16.4 18 15.8 18H2.1C1.5 18 1 17.6 1 17V2C1 1.4 1.5 1 2.1 1Z" fill="url(#paint0_linear_712_251)"/>
<path opacity="0.8" d="M4.09961 3H13.7996C14.2996 3 14.7996 3.4 14.7996 3.9V4.1C14.7996 4.6 14.3996 5 13.7996 5H4.09961C3.59961 5 3.09961 4.6 3.09961 4.1V3.9C3.09961 3.4 3.59961 3 4.09961 3Z" fill="white"/>
<path d="M8.3998 7H17.8998C18.4998 7 18.9998 7.4 18.9998 8V18C18.9998 18.6 18.4998 19 17.8998 19H8.3998C7.7998 19 7.2998 18.6 7.2998 18V8C7.2998 7.4 7.7998 7 8.3998 7Z" fill="#FFBEBE"/>
<path d="M16.8998 7V17C16.8998 17.6 16.3998 18 15.7998 18H7.2998V8C7.2998 7.4 7.7998 7 8.3998 7H16.8998Z" fill="#FE9798"/>
<path opacity="0.8" d="M9.90039 8.80005H14.7004C15.2004 8.80005 15.7004 9.20005 15.7004 9.70005V9.90005C15.7004 10.4 15.3004 10.8 14.7004 10.8H9.90039C9.40039 10.8 8.90039 10.4 8.90039 9.90005V9.70005C8.90039 9.20005 9.40039 8.80005 9.90039 8.80005Z" fill="white"/>
<path opacity="0.8" d="M9.7998 12.5H13.8998C14.3998 12.5 14.6998 12.9 14.6998 13.4V13.6C14.6998 14.1 14.2998 14.5 13.8998 14.5H9.7998C9.2998 14.5 8.9998 14.1 8.9998 13.6V13.4C8.8998 12.9 9.2998 12.5 9.7998 12.5Z" fill="white"/>
<defs>
<linearGradient id="paint0_linear_712_251" x1="3.3395" y1="0.4954" x2="16.0206" y2="16.3953" gradientUnits="userSpaceOnUse">
<stop stop-color="#FF7676"/>
<stop offset="1" stop-color="#FC3D45"/>
</linearGradient>
</defs>
</svg>
